<svg width="37" height="36" viewBox="0 0 37 36" fill="none" xmlns="http://www.w3.org/2000/svg">
<g id="users-alt" clip-path="url(#clip0_92_2116)">
<path id="Vector" d="M18.5 24C17.3133 24 16.1533 23.6481 15.1666 22.9888C14.1799 22.3295 13.4108 21.3925 12.9567 20.2961C12.5026 19.1997 12.3838 17.9933 12.6153 16.8295C12.8468 15.6656 13.4182 14.5965 14.2574 13.7574C15.0965 12.9182 16.1656 12.3468 17.3295 12.1153C18.4933 11.8838 19.6997 12.0026 20.7961 12.4567C21.8925 12.9109 22.8295 13.6799 23.4888 14.6666C24.1481 15.6533 24.5 16.8133 24.5 18C24.5 19.5913 23.8679 21.1174 22.7426 22.2426C21.6174 23.3679 20.0913 24 18.5 24ZM9.0245 24H2C1.60218 24 1.22064 23.842 0.93934 23.5607C0.658035 23.2794 0.5 22.8978 0.5 22.5C0.514214 20.3462 1.29759 18.2683 2.70883 16.6411C4.12008 15.014 6.06631 13.9446 8.1965 13.626C8.44403 13.5913 8.69631 13.619 8.9304 13.7067C9.16449 13.7943 9.37298 13.939 9.53692 14.1277C9.70085 14.3163 9.81504 14.543 9.86911 14.787C9.92318 15.0311 9.9154 15.2847 9.8465 15.525C9.61663 16.3299 9.50001 17.1629 9.5 18C9.50043 19.3346 9.80083 20.6521 10.379 21.855C10.4877 22.0833 10.537 22.3354 10.5222 22.5879C10.5074 22.8403 10.429 23.085 10.2943 23.299C10.1596 23.513 9.97292 23.6895 9.75171 23.8121C9.5305 23.9346 9.28189 23.9993 9.029 24H9.0245ZM26 36H11C10.6022 36 10.2206 35.842 9.93934 35.5607C9.65804 35.2794 9.5 34.8978 9.5 34.5C9.5 32.1131 10.4482 29.8239 12.136 28.136C13.8239 26.4482 16.1131 25.5 18.5 25.5C20.8869 25.5 23.1761 26.4482 24.864 28.136C26.5518 29.8239 27.5 32.1131 27.5 34.5C27.5 34.8978 27.342 35.2794 27.0607 35.5607C26.7794 35.842 26.3978 36 26 36ZM27.5 12C26.3133 12 25.1533 11.6481 24.1666 10.9888C23.1799 10.3295 22.4108 9.39246 21.9567 8.2961C21.5026 7.19975 21.3838 5.99335 21.6153 4.82946C21.8468 3.66558 22.4182 2.59648 23.2574 1.75736C24.0965 0.918247 25.1656 0.346802 26.3295 0.115291C27.4933 -0.11622 28.6997 0.00259969 29.7961 0.456725C30.8925 0.910851 31.8295 1.67989 32.4888 2.66658C33.1481 3.65328 33.5 4.81331 33.5 6C33.5 7.5913 32.8679 9.11743 31.7426 10.2426C30.6174 11.3679 29.0913 12 27.5 12ZM9.5 12C8.31331 12 7.15327 11.6481 6.16658 10.9888C5.17988 10.3295 4.41085 9.39246 3.95672 8.2961C3.5026 7.19975 3.38378 5.99335 3.61529 4.82946C3.8468 3.66558 4.41824 2.59648 5.25736 1.75736C6.09647 0.918247 7.16557 0.346802 8.32946 0.115291C9.49334 -0.11622 10.6997 0.00259969 11.7961 0.456725C12.8925 0.910851 13.8295 1.67989 14.4888 2.66658C15.1481 3.65328 15.5 4.81331 15.5 6C15.5 7.5913 14.8679 9.11743 13.7426 10.2426C12.6174 11.3679 11.0913 12 9.5 12ZM35 24H27.9755C27.7226 23.9993 27.474 23.9346 27.2528 23.8121C27.0316 23.6895 26.8449 23.513 26.7102 23.299C26.5755 23.085 26.4971 22.8403 26.4823 22.5879C26.4675 22.3354 26.5168 22.0833 26.6255 21.855C27.2021 20.6517 27.501 19.3343 27.5 18C27.4975 17.1626 27.3784 16.3296 27.146 15.525C27.0767 15.2841 27.0689 15.0296 27.1233 14.7848C27.1777 14.5401 27.2926 14.3129 27.4575 14.124C27.6223 13.9351 27.8319 13.7906 28.0671 13.7036C28.3022 13.6166 28.5554 13.5899 28.8035 13.626C30.9337 13.9446 32.8799 15.014 34.2912 16.6411C35.7024 18.2683 36.4858 20.3462 36.5 22.5C36.5 22.8978 36.342 23.2794 36.0607 23.5607C35.7794 23.842 35.3978 24 35 24Z" fill="#3587FE"/>
</g>
<defs>
<clipPath id="clip0_92_2116">
<rect width="36" height="36" fill="white" transform="translate(0.5)"/>
</clipPath>
</defs>
</svg>
